<svg width="35" height="35" viewBox="0 0 35 35" fill="none" xmlns="http://www.w3.org/2000/svg">
<g clip-path="url(#clip0_9_9)">
<path d="M10.2083 26.25C8.60415 26.25 7.30623 27.5625 7.30623 29.1667C7.30623 30.7708 8.60415 32.0833 10.2083 32.0833C11.8125 32.0833 13.125 30.7708 13.125 29.1667C13.125 27.5625 11.8125 26.25 10.2083 26.25ZM1.45831 2.91666V5.83332H4.37498L9.62498 16.9021L7.65623 20.475C7.4229 20.8833 7.29165 21.3646 7.29165 21.875C7.29165 23.4792 8.60415 24.7917 10.2083 24.7917H27.7083V21.875H10.8208C10.6166 21.875 10.4562 21.7146 10.4562 21.5104L10.5 21.3354L11.8125 18.9583H22.6771C23.7708 18.9583 24.7333 18.3604 25.2291 17.4562L30.45 7.99166C30.5666 7.78749 30.625 7.53957 30.625 7.29166C30.625 6.48957 29.9687 5.83332 29.1666 5.83332H7.5979L6.22706 2.91666H1.45831ZM24.7916 26.25C23.1875 26.25 21.8896 27.5625 21.8896 29.1667C21.8896 30.7708 23.1875 32.0833 24.7916 32.0833C26.3958 32.0833 27.7083 30.7708 27.7083 29.1667C27.7083 27.5625 26.3958 26.25 24.7916 26.25Z" fill="#FFF6F6"/>
</g>
<defs>
<clipPath id="clip0_9_9">
<rect width="35" height="35" fill="white"/>
</clipPath>
</defs>
</svg>
